<?xml version="1.0" encoding="utf-8"?>
<svg viewBox="0 0 500 500" xmlns="http://www.w3.org/2000/svg" xmlns:xlink="http://www.w3.org/1999/xlink">
  <defs>
    <style>
      #background {fill: #fff}
      #laptop-touchpad {fill: #c3c6d1}

      .cls-1 {fill: #b1b4c4}
      .cls-2 {fill: #e4e7f2}
      .cls-3, .cls-5 {fill: #d6d8e5}
      .cls-5 {opacity: 0.4}
      .cls-6 {fill: #2b303f}
      .cls-7 {fill: #757b89}

      @media (prefers-color-scheme: dark) {
        #background {fill: #000}
        #laptop-touchpad {fill: #3c3d40}
        
        .cls-1 {fill: #2c2d2e}
        .cls-2 {fill: #000}
        .cls-3 {fill: #252628}
        .cls-5 {fill: #5a5b5e; opacity: 1}
        .cls-6 {fill: #313236}
      }

      .ccls-1 {fill: #ef596f}
      .ccls-2 {fill: #d55fde}
      .ccls-3 {fill: #d19a66}
      .ccls-4 {fill: #61afef}
      .ccls-5 {fill: #89ca78; fill-opacity: 0.5}

      #code {
        animation: code-scroll linear 3s infinite;
        transform: translateY(0) matrix(1, 0, 0, 1, -172.713379, 2.67908)
      }
      @keyframes code-scroll {
        100% {transform: translateY(-100px) matrix(1, 0, 0, 1, -172.713379, 2.67908)}
      }

      #message-1 {
        opacity: 0;
        animation: message-1-appear linear 10s infinite
      }
      @keyframes message-1-appear {
        0%, 19% {opacity: 0}
        20%, 79% {opacity: 1}
        80% {opacity: 0}
      }

      #message-2 {
        opacity: 0;
        animation: message-2-appear linear 10s infinite
      }
      @keyframes message-2-appear {
        0%, 49% {opacity: 0}
        50% {opacity: 1}
        80% {
          opacity: 1;
          transform: translateY(0)
        }
        82%, 99% {
          opacity: 1;
          transform: translate(19.5px, -12px)
        }
        100% {opacity: 0}
      }
    </style>
    <linearGradient id="laptop-screen-gradient" x1="-215" y1="2299.93" x2="-215" y2="2147.32" gradientTransform="matrix(0.87, 0.5, 0, 1.15, 512.04, -2300.54)" gradientUnits="userSpaceOnUse">
      <stop offset="0.21" stop-color="#fff" stop-opacity="0"/>
      <stop offset="1" stop-color="#fff" stop-opacity="0.2"/>
    </linearGradient>
    <linearGradient id="phone-screen-gradient" x1="-1791.86" y1="3243.88" x2="-1791.86" y2="3142.82" gradientTransform="matrix(0.87, 0.5, -1, 0.58, 5169.47998, -526.539978)" xlink:href="#laptop-screen-gradient"/>
  </defs>
  <g id="laptop" transform="matrix(1.07969, 0, 0, 1.056165, -40.352056, 0.123699)">
    <path id="laptop-screen" d="M442.73,315.13,209,180.17l.12-172.95c0-1.77,1.24-2.49,2.78-1.6l228.2,131.75a6.16,6.16,0,0,1,2.78,4.81Z" style="fill: #1e212d;"/>
    <g id="code">
      <rect class="ccls-5" x="328.066" y="32.469" width="96.587" height="4.505" rx="2.253" ry="2.253" transform="matrix(0.866217, 0.499668, 0, 1.154445, 104.380997, -189.407761)"/>
      <rect class="ccls-2" x="441.441" y="32.469" width="129.966" height="4.505" rx="2.253" ry="2.253" transform="matrix(0.866217, 0.499668, 0, 1.154445, 6.173678, -236.057602)"/>
      <rect class="ccls-3" x="174.395" y="32.469" width="51.344" height="4.505" rx="2.253" ry="2.253" transform="matrix(0.866217, 0.499668, 0, 1.154445, 237.493439, -92.623276)"/>
      <rect class="ccls-4" x="530.912" y="32.469" width="156.307" height="4.505" rx="2.253" ry="2.253" transform="matrix(0.866217, 0.499668, 0, 1.154445, -71.327629, -260.763428)"/>
      <rect class="ccls-5" x="450.32" y="32.469" width="132.58" height="4.505" rx="2.253" ry="2.253" transform="matrix(0.866217, 0.499668, 0, 1.154445, -1.517487, -210.494171)"/>
      <rect class="ccls-3" x="259.085" y="32.469" width="76.278" height="4.505" rx="2.253" ry="2.253" transform="matrix(0.866217, 0.499668, 0, 1.154445, 164.13353, -104.940155)"/>
      <rect class="ccls-4" x="530.912" y="32.469" width="156.307" height="4.505" rx="2.253" ry="2.253" transform="matrix(0.866217, 0.499668, 0, 1.154445, -71.327629, -230.763412)"/>
      <rect class="ccls-1" x="269.33" y="32.469" width="79.294" height="4.505" rx="2.253" ry="2.253" transform="matrix(0.866217, 0.499668, 0, 1.154445, 155.25914, -90.059258)"/>
      <rect class="ccls-2" x="149.808" y="32.469" width="44.105" height="4.505" rx="2.253" ry="2.253" transform="matrix(0.866217, 0.499668, 0, 1.154445, 258.791107, -20.33795)"/>
      <rect class="ccls-1" x="483.412" y="32.469" width="142.323" height="4.505" rx="2.253" ry="2.253" transform="matrix(0.866217, 0.499668, 0, 1.154445, -30.182346, -177.02919)"/>
      <rect class="ccls-5" x="328.066" y="32.469" width="96.587" height="4.505" rx="2.253" ry="2.253" transform="matrix(0.866217, 0.499668, 0, 1.154445, 104.357513, -89.383728)"/>
      <rect class="ccls-2" x="441.441" y="32.469" width="129.966" height="4.505" rx="2.253" ry="2.253" transform="matrix(0.866217, 0.499668, 0, 1.154445, 6.150197, -136.033569)"/>
      <rect class="ccls-3" x="174.395" y="32.469" width="51.344" height="4.505" rx="2.253" ry="2.253" transform="matrix(0.866217, 0.499668, 0, 1.154445, 237.469955, 7.400773)"/>
      <rect class="ccls-4" x="530.912" y="32.469" width="156.307" height="4.505" rx="2.253" ry="2.253" transform="matrix(0.866217, 0.499668, 0, 1.154445, -71.35112, -160.739395)"/>
      <rect class="ccls-5" x="450.32" y="32.469" width="132.58" height="4.505" rx="2.253" ry="2.253" transform="matrix(0.866217, 0.499668, 0, 1.154445, -1.540966, -110.470139)"/>
      <rect class="ccls-3" x="259.085" y="32.469" width="76.278" height="4.505" rx="2.253" ry="2.253" transform="matrix(0.866217, 0.499668, 0, 1.154445, 164.110046, -4.916107)"/>
      <rect class="ccls-4" x="530.912" y="32.469" width="156.307" height="4.505" rx="2.253" ry="2.253" transform="matrix(0.866217, 0.499668, 0, 1.154445, -71.35112, -130.73938)"/>
      <rect class="ccls-1" x="269.33" y="32.469" width="79.294" height="4.505" rx="2.253" ry="2.253" transform="matrix(0.866217, 0.499668, 0, 1.154445, 155.235657, 9.964791)"/>
      <rect class="ccls-2" x="149.808" y="32.469" width="44.105" height="4.505" rx="2.253" ry="2.253" transform="matrix(0.866217, 0.499668, 0, 1.154445, 258.767639, 79.686096)"/>
      <rect class="ccls-1" x="483.412" y="32.469" width="142.323" height="4.505" rx="2.253" ry="2.253" transform="matrix(0.866217, 0.499668, 0, 1.154445, -30.205837, -77.00515)"/>
      <rect class="ccls-5" x="328.066" y="32.469" width="96.587" height="4.505" rx="2.253" ry="2.253" transform="matrix(0.866217, 0.499668, 0, 1.154445, 104.357513, 10.616273)"/>
      <rect class="ccls-2" x="441.441" y="32.469" width="129.966" height="4.505" rx="2.253" ry="2.253" transform="matrix(0.866217, 0.499668, 0, 1.154445, 6.150193, -36.033585)"/>
      <rect class="ccls-3" x="174.395" y="32.469" width="51.344" height="4.505" rx="2.253" ry="2.253" transform="matrix(0.866217, 0.499668, 0, 1.154445, 237.469955, 107.400772)"/>
      <rect class="ccls-4" x="530.912" y="32.469" width="156.307" height="4.505" rx="2.253" ry="2.253" transform="matrix(0.866217, 0.499668, 0, 1.154445, -71.35112, -60.73941)"/>
      <rect class="ccls-5" x="450.32" y="32.469" width="132.58" height="4.505" rx="2.253" ry="2.253" transform="matrix(0.866217, 0.499668, 0, 1.154445, -1.540969, -10.470137)"/>
      <rect class="ccls-3" x="259.085" y="32.469" width="76.278" height="4.505" rx="2.253" ry="2.253" transform="matrix(0.866217, 0.499668, 0, 1.154445, 164.110046, 95.083893)"/>
      <rect class="ccls-4" x="530.912" y="32.469" width="156.307" height="4.505" rx="2.253" ry="2.253" transform="matrix(0.866217, 0.499668, 0, 1.154445, -71.35112, -30.739395)"/>
    </g>
    <path id="laptop-lid" class="cls-1" d="M 442.533 324.456 L 214.333 192.706 C 211.133 190.856 208.543 185.906 208.543 181.636 L 208.543 5.116 C 208.543 4.009 208.717 3.057 209.031 2.287 C 208.558 2.04 208.133 1.816 208.133 1.816 L 210.435 0.494 C 211.464 -0.161 212.831 -0.132 214.333 0.736 L 442.533 132.486 C 445.733 134.336 448.333 139.286 448.333 143.556 L 448.333 320.036 C 448.333 322.448 447.519 324.124 446.24 324.808 L 446.243 324.826 L 443.713 326.276 L 443.912 325.033 C 443.47 324.921 443.008 324.731 442.533 324.456 Z M 442.853 142.216 C 442.743 140.262 441.711 138.476 440.073 137.406 L 211.873 5.656 C 210.333 4.766 209.093 5.486 209.093 7.256 L 208.973 180.206 L 442.703 315.166 L 442.853 142.216 Z"/>
    <path id="laptop-lid-strip" class="cls-2" d="M 440.407 325.631 L 212.207 193.881 C 209.007 192.031 206.407 187.071 206.407 182.811 L 206.407 6.291 C 206.407 2.021 209.007 0.061 212.207 1.901 L 440.407 133.661 C 443.607 135.501 446.207 140.461 446.207 144.731 L 446.207 321.251 C 446.207 325.521 443.607 327.481 440.407 325.631 Z M 442.817 142.181 C 442.707 140.227 441.675 138.441 440.037 137.371 L 211.837 5.621 C 210.297 4.731 209.057 5.451 209.057 7.221 L 208.937 180.171 L 442.667 315.131 L 442.817 142.181 Z"/>
    <path id="laptop-screen-border" class="cls-3" d="M 440.02 325.824 L 211.82 194.074 C 208.62 192.224 206.02 187.264 206.02 183.004 L 206.02 6.474 C 206.02 2.214 208.62 0.254 211.82 2.094 L 440.02 133.854 C 443.22 135.694 445.81 140.654 445.81 144.924 L 445.81 321.444 C 445.81 325.714 443.22 327.674 440.02 325.824 Z M 442.83 142.144 C 442.72 140.191 441.688 138.405 440.05 137.334 L 211.85 5.584 C 210.31 4.694 209.07 5.414 209.07 7.184 L 208.95 180.134 L 442.68 315.094 L 442.83 142.144 Z"/>
    <path id="laptop-screen-gradient" d="M442.66,315.13,208.9,180.18l.12-173c0-1.77,1.25-2.49,2.78-1.6L440,137.38a6.12,6.12,0,0,1,2.78,4.81Z" style="fill: url(#laptop-screen-gradient); opacity: 0.5;"/>
    <path id="laptop-shadow" class="cls-5" d="M268,428.44,39.75,296.68c-3.2-1.84-2.8-5.07.9-7.21l152.87-88.26c3.7-2.13,9.29-2.36,12.49-.51l228.2,131.75c3.2,1.85,2.8,5.07-.9,7.21L280.44,427.92C276.75,430.05,271.15,430.28,268,428.44Z"/>
    <path id="laptop-cover" class="cls-1" d="M 272.94 425.44 L 44.74 293.69 C 43.352 292.887 42.641 291.827 42.583 290.708 L 42.58 290.71 L 42.58 290.61 C 42.579 290.577 42.579 290.544 42.58 290.51 L 42.58 286.41 L 44.533 287.227 C 44.861 286.967 45.231 286.717 45.64 286.48 L 198.51 198.22 C 202.2 196.09 207.79 195.86 210.99 197.7 L 438.931 329.305 L 441.36 328.47 L 441.36 332.536 C 441.361 332.569 441.361 332.602 441.36 332.636 L 441.36 332.67 L 441.359 332.67 C 441.319 334.062 440.284 335.523 438.3 336.67 L 285.43 424.93 C 281.73 427.06 276.14 427.29 272.94 425.44 Z"/>
    <path id="laptop-cover-strip" class="cls-2" d="M272.94,421.82,44.74,290.07c-3.2-1.85-2.8-5.08.9-7.21L198.51,194.6c3.69-2.14,9.28-2.37,12.48-.52L439.2,325.83c3.2,1.85,2.8,5.08-.9,7.21L285.43,421.3C281.73,423.44,276.14,423.67,272.94,421.82Z"/>
    <path id="laptop-housing" class="cls-3" d="M 272.94 421.26 L 44.74 289.51 C 41.54 287.66 41.94 284.43 45.64 282.3 L 198.51 194 C 202.2 191.86 207.79 191.63 210.99 193.48 L 439.2 325.27 C 442.4 327.12 442 330.35 438.3 332.48 L 285.43 420.74 C 281.73 422.88 276.14 423.11 272.94 421.26 Z"/>
    <path id="laptop-screen-connector" class="cls-6" d="M 428.39 322.83 L 215 199.65 C 214.029 198.957 213.446 197.843 213.43 196.65 L 213.43 194.15 C 213.43 192.99 214.13 192.46 215 192.96 L 428.39 316.14 C 429.361 316.833 429.944 317.947 429.96 319.14 L 429.96 321.65 C 430 322.8 429.26 323.33 428.39 322.83 Z"/>
    <g id="keyboard">
      <path id="key-escape" class="cls-6" d="M 209.28 215.06 L 198.8 209 C 197.93 208.5 198.04 207.62 199.04 207 L 204.11 204.08 C 205.15 203.499 206.405 203.447 207.49 203.94 L 217.877 210.027 C 218.747 210.527 218.637 211.397 217.637 211.977 L 212.66 214.89 C 211.624 215.481 210.369 215.544 209.28 215.06 Z"/>
      <path id="key-f1" class="cls-6" d="M 230.332 227.096 L 219.852 221.036 C 218.982 220.536 219.092 219.656 220.092 219.036 L 225.162 216.116 C 226.202 215.535 227.457 215.483 228.542 215.976 L 238.929 222.063 C 239.799 222.563 239.689 223.433 238.689 224.013 L 233.712 226.926 C 232.676 227.517 231.421 227.58 230.332 227.096 Z"/>
      <path id="key-f2" class="cls-6" d="M 245.445 236.066 L 234.965 230.006 C 234.095 229.506 234.205 228.626 235.205 228.006 L 240.275 225.086 C 241.315 224.505 242.57 224.453 243.655 224.946 L 254.042 231.033 C 254.912 231.533 254.802 232.403 253.802 232.983 L 248.825 235.896 C 247.789 236.487 246.534 236.55 245.445 236.066 Z"/>
      <path id="key-f3" class="cls-6" d="M 260.399 244.867 L 249.919 238.807 C 249.049 238.307 249.159 237.427 250.159 236.807 L 255.229 233.887 C 256.269 233.306 257.524 233.254 258.609 233.747 L 268.996 239.834 C 269.866 240.334 269.756 241.204 268.756 241.784 L 263.779 244.697 C 262.743 245.288 261.488 245.351 260.399 244.867 Z"/>
      <path id="key-f4" class="cls-6" d="M 275.394 253.431 L 264.914 247.371 C 264.044 246.871 264.154 245.991 265.154 245.371 L 270.224 242.451 C 271.264 241.87 272.519 241.818 273.604 242.311 L 283.991 248.398 C 284.861 248.898 284.751 249.768 283.751 250.348 L 278.774 253.261 C 277.738 253.852 276.483 253.915 275.394 253.431 Z"/>
      <path id="key-f5" class="cls-6" d="M 290.465 261.979 L 279.985 255.919 C 279.115 255.419 279.225 254.539 280.225 253.919 L 285.295 250.999 C 286.335 250.418 287.59 250.366 288.675 250.859 L 299.062 256.946 C 299.932 257.446 299.822 258.316 298.822 258.896 L 293.845 261.809 C 292.809 262.4 291.554 262.463 290.465 261.979 Z"/>
      <path id="key-f6" class="cls-6" d="M 305.287 270.508 L 294.807 264.448 C 293.937 263.948 294.047 263.068 295.047 262.448 L 300.117 259.528 C 301.157 258.947 302.412 258.895 303.497 259.388 L 313.884 265.475 C 314.754 265.975 314.644 266.845 313.644 267.425 L 308.667 270.338 C 307.631 270.929 306.376 270.992 305.287 270.508 Z"/>
      <path id="key-f7" class="cls-6" d="M 320.08 279.066 L 309.6 273.006 C 308.73 272.506 308.84 271.626 309.84 271.006 L 314.91 268.086 C 315.95 267.505 317.205 267.453 318.29 267.946 L 328.677 274.033 C 329.547 274.533 329.437 275.403 328.437 275.983 L 323.46 278.896 C 322.424 279.487 321.169 279.55 320.08 279.066 Z"/>
      <path id="key-f8" class="cls-6" d="M 335.285 287.781 L 324.805 281.721 C 323.935 281.221 324.045 280.341 325.045 279.721 L 330.115 276.801 C 331.155 276.22 332.41 276.168 333.495 276.661 L 343.882 282.748 C 344.752 283.248 344.642 284.118 343.642 284.698 L 338.665 287.611 C 337.629 288.202 336.374 288.265 335.285 287.781 Z"/>
      <path id="key-f9" class="cls-6" d="M 350.652 296.528 L 340.172 290.468 C 339.302 289.968 339.412 289.088 340.412 288.468 L 345.482 285.548 C 346.522 284.967 347.777 284.915 348.862 285.408 L 359.249 291.495 C 360.119 291.995 360.009 292.865 359.009 293.445 L 354.032 296.358 C 352.996 296.949 351.741 297.012 350.652 296.528 Z"/>
      <path id="key-f10" class="cls-6" d="M 365.662 305.339 L 355.182 299.279 C 354.312 298.779 354.422 297.899 355.422 297.279 L 360.492 294.359 C 361.532 293.778 362.787 293.726 363.872 294.219 L 374.259 300.306 C 375.129 300.806 375.019 301.676 374.019 302.256 L 369.042 305.169 C 368.006 305.76 366.751 305.823 365.662 305.339 Z"/>
      <path id="key-f11" class="cls-6" d="M 381.22 313.937 L 370.74 307.877 C 369.87 307.377 369.98 306.497 370.98 305.877 L 376.05 302.957 C 377.09 302.376 378.345 302.324 379.43 302.817 L 389.817 308.904 C 390.687 309.404 390.577 310.274 389.577 310.854 L 384.6 313.767 C 383.564 314.358 382.309 314.421 381.22 313.937 Z"/>
      <path id="key-f12" class="cls-6" d="M 396.328 322.648 L 385.848 316.588 C 384.978 316.088 385.088 315.208 386.088 314.588 L 391.158 311.668 C 392.198 311.087 393.453 311.035 394.538 311.528 L 404.925 317.615 C 405.795 318.115 405.685 318.985 404.685 319.565 L 399.708 322.478 C 398.672 323.069 397.417 323.132 396.328 322.648 Z"/>
      <path id="key-delete" class="cls-6" d="M 411.588 331.676 L 401.108 325.616 C 400.238 325.116 400.348 324.236 401.348 323.616 L 406.418 320.696 C 407.458 320.115 408.713 320.063 409.798 320.556 L 420.185 326.643 C 421.055 327.143 420.945 328.013 419.945 328.593 L 414.968 331.506 C 413.932 332.097 412.677 332.16 411.588 331.676 Z"/>
      <path id="key-tilde" class="cls-6" d="M 194.27 223.81 L 183.65 217.67 C 182.78 217.17 182.89 216.3 183.89 215.72 L 194 209.87 C 195.04 209.289 196.295 209.237 197.38 209.73 L 208 215.86 C 208.86 216.36 208.76 217.24 207.75 217.86 L 197.62 223.71 C 196.58 224.265 195.341 224.302 194.27 223.81 Z"/>
      <path id="key-1" class="cls-6" d="M 209.31 232.49 L 198.69 226.36 C 197.82 225.86 197.93 224.98 198.93 224.36 L 209.07 218.5 C 210.11 217.919 211.365 217.867 212.45 218.36 L 223.08 224.5 C 223.95 225 223.84 225.87 222.84 226.45 L 212.7 232.3 C 211.664 232.897 210.406 232.968 209.31 232.49 Z"/>
      <path id="key-2" class="cls-6" d="M 224.53 241.28 L 213.9 235.14 C 213.04 234.64 213.14 233.77 214.15 233.19 L 224.29 227.34 C 225.33 226.759 226.585 226.707 227.67 227.2 L 238.29 233.33 C 239.16 233.83 239.05 234.71 238.05 235.28 L 227.91 241.14 C 226.868 241.716 225.616 241.768 224.53 241.28 Z"/>
      <path id="key-3" class="cls-6" d="M 239.4 249.86 L 228.77 243.73 C 227.91 243.23 228.01 242.35 229.02 241.78 L 239.15 235.92 C 240.194 235.339 241.452 235.287 242.54 235.78 L 253.16 241.92 C 254.03 242.42 253.92 243.29 252.92 243.92 L 242.78 249.77 C 241.732 250.335 240.477 250.368 239.4 249.86 Z"/>
      <path id="key-4" class="cls-6" d="M 254.44 258.55 L 243.81 252.41 C 242.95 251.91 243.06 251.04 244.06 250.46 L 254.2 244.61 C 255.239 244.024 256.496 243.972 257.58 244.47 L 268.2 250.6 C 269.07 251.1 268.96 251.97 267.96 252.6 L 257.82 258.46 C 256.77 259.02 255.518 259.054 254.44 258.55 Z"/>
      <path id="key-5" class="cls-6" d="M 269.48 267.23 L 258.86 261.1 C 257.99 260.6 258.1 259.72 259.1 259.1 L 269.24 253.25 C 270.28 252.669 271.535 252.617 272.62 253.11 L 283.25 259.24 C 284.11 259.74 284 260.62 283 261.24 L 272.86 267.09 C 271.82 267.671 270.565 267.723 269.48 267.23 Z"/>
      <path id="key-6" class="cls-6" d="M 284.52 275.92 L 273.9 269.78 C 273.03 269.28 273.14 268.41 274.14 267.83 L 284.28 262 C 285.322 261.424 286.574 261.372 287.66 261.86 L 298.29 268 C 299.15 268.5 299.05 269.37 298.04 269.95 L 287.9 275.8 C 286.856 276.375 285.602 276.419 284.52 275.92 Z"/>
      <path id="key-7" class="cls-6" d="M 299.56 284.6 L 288.94 278.46 C 288.07 277.96 288.18 277.09 289.18 276.51 L 299.32 270.66 C 300.36 270.079 301.615 270.027 302.7 270.52 L 313.33 276.65 C 314.2 277.15 314.09 278.03 313.09 278.65 L 303 284.46 C 301.943 285.058 300.662 285.11 299.56 284.6 Z"/>
      <path id="key-8" class="cls-6" d="M 314.61 293.28 L 304 287.15 C 303.13 286.65 303.24 285.77 304.24 285.2 L 314.38 279.34 C 315.42 278.759 316.675 278.707 317.76 279.2 L 328.39 285.34 C 329.26 285.84 329.15 286.71 328.15 287.34 L 318 293.14 C 316.957 293.724 315.698 293.776 314.61 293.28 Z"/>
      <path id="key-9" class="cls-6" d="M 329.65 302 L 319 295.83 C 318.14 295.33 318.24 294.46 319.25 293.88 L 329.4 288 C 330.444 287.419 331.702 287.367 332.79 287.86 L 343.41 294 C 344.28 294.5 344.17 295.38 343.17 296 L 333 301.83 C 331.972 302.411 330.731 302.474 329.65 302 Z"/>
      <path id="key-0" class="cls-6" d="M 344.69 310.65 L 334.06 304.52 C 333.2 304.02 333.31 303.14 334.31 302.57 L 344.45 296.71 C 345.49 296.129 346.745 296.077 347.83 296.57 L 358.45 302.71 C 359.32 303.21 359.21 304.08 358.21 304.71 L 348.07 310.56 C 347.022 311.125 345.767 311.158 344.69 310.65 Z"/>
      <path id="key-minus" class="cls-6" d="M 359.73 319.34 L 349.11 313.2 C 348.24 312.7 348.35 311.83 349.35 311.25 L 359.49 305.4 C 360.529 304.814 361.786 304.762 362.87 305.26 L 373.49 311.39 C 374.36 311.89 374.25 312.76 373.25 313.34 L 363.11 319.2 C 362.068 319.776 360.816 319.828 359.73 319.34 Z"/>
      <path id="key-equals" class="cls-6" d="M 374.77 328 L 364.15 321.87 C 363.28 321.37 363.39 320.49 364.39 319.87 L 374.53 314.02 C 375.57 313.439 376.825 313.387 377.91 313.88 L 388.54 320.01 C 389.4 320.51 389.29 321.39 388.29 322.01 L 378.15 327.86 C 377.11 328.441 375.855 328.493 374.77 328 Z"/>
      <path id="key-backspace" class="cls-6" d="M 397.06 340.89 L 379.19 330.57 C 378.32 330.07 378.43 329.2 379.43 328.62 L 389.57 322.76 C 390.612 322.184 391.864 322.132 392.95 322.62 L 410.82 332.94 C 411.69 333.44 411.58 334.32 410.58 334.89 L 400.44 340.75 C 399.4 341.331 398.145 341.383 397.06 340.89 Z"/>
      <path id="key-tab" class="cls-6" d="M 185.838 235.721 L 169.07 226.09 C 168.2 225.59 168.31 224.72 169.31 224.09 L 179.45 218.24 C 180.49 217.659 181.745 217.607 182.83 218.1 L 199.598 227.721 C 200.468 228.221 200.358 229.101 199.358 229.721 L 189.218 235.571 C 188.179 236.156 186.925 236.211 185.838 235.721 Z"/>
      <path id="key-q" class="cls-6" d="M 200.529 244.214 L 189.909 238.104 C 189.039 237.604 189.149 236.734 190.149 236.154 L 200.289 230.304 C 201.333 229.723 202.591 229.671 203.679 230.164 L 214.299 236.294 C 215.169 236.794 215.059 237.674 214.059 238.294 L 203.919 244.104 C 202.871 244.679 201.612 244.72 200.529 244.214 Z"/>
      <path id="key-w" class="cls-6" d="M 215.599 252.914 L 204.979 246.774 C 204.109 246.274 204.219 245.404 205.219 244.824 L 215.359 238.974 C 216.4 238.393 217.654 238.341 218.739 238.834 L 229.369 244.964 C 230.229 245.464 230.129 246.344 229.119 246.914 L 218.989 252.774 C 217.945 253.355 216.688 253.407 215.599 252.914 Z"/>
      <path id="key-e" class="cls-6" d="M 230.669 261.614 L 220.049 255.474 C 219.179 254.974 219.289 254.104 220.289 253.474 L 230.429 247.624 C 231.47 247.043 232.724 246.991 233.809 247.484 L 244.439 253.614 C 245.299 254.114 245.189 254.994 244.189 255.564 L 234.049 261.424 C 233.015 262.017 231.763 262.087 230.669 261.614 Z"/>
      <path id="key-r" class="cls-6" d="M 245.739 270.314 L 235.109 264.174 C 234.249 263.674 234.359 262.804 235.359 262.224 L 245.529 256.374 C 246.568 255.788 247.825 255.736 248.909 256.234 L 259.529 262.364 C 260.399 262.864 260.289 263.734 259.289 264.314 L 249.149 270.174 C 248.1 270.76 246.833 270.812 245.739 270.314 Z"/>
      <path id="key-t" class="cls-6" d="M 260.689 278.944 L 250.059 272.804 C 249.189 272.304 249.299 271.434 250.299 270.854 L 260.439 264.994 C 261.481 264.418 262.733 264.366 263.819 264.854 L 274.449 270.994 C 275.319 271.494 275.209 272.364 274.209 272.944 L 264.069 278.804 C 263.027 279.38 261.775 279.432 260.689 278.944 Z"/>
      <path id="key-y" class="cls-6" d="M 275.749 287.644 L 265.129 281.504 C 264.259 281.004 264.369 280.134 265.369 279.554 L 275.529 273.694 C 276.571 273.118 277.823 273.066 278.909 273.554 L 289.529 279.694 C 290.389 280.194 290.289 281.064 289.279 281.694 L 279.149 287.544 C 278.096 288.116 276.834 288.153 275.749 287.644 Z"/>
      <path id="key-u" class="cls-6" d="M 290.819 296.334 L 280.199 290.204 C 279.329 289.704 279.439 288.834 280.439 288.204 L 290.579 282.344 C 291.621 281.768 292.873 281.716 293.959 282.204 L 304.579 288.344 C 305.449 288.844 305.339 289.714 304.339 290.294 L 294.199 296.144 C 293.167 296.741 291.912 296.812 290.819 296.334 Z"/>
      <path id="key-i" class="cls-6" d="M 305.889 305.034 L 295.259 298.904 C 294.399 298.404 294.499 297.524 295.509 296.954 L 305.639 291.104 C 306.683 290.523 307.941 290.471 309.029 290.964 L 319.649 297.104 C 320.519 297.604 320.409 298.474 319.409 299.054 L 309.269 304.904 C 308.227 305.482 306.973 305.53 305.889 305.034 Z"/>
      <path id="key-o" class="cls-6" d="M 320.959 313.734 L 310.329 307.604 C 309.459 307.104 309.569 306.224 310.569 305.654 L 320.709 299.794 C 321.75 299.213 323.004 299.161 324.089 299.654 L 334.719 305.794 C 335.589 306.294 335.479 307.164 334.479 307.744 L 324.339 313.594 C 323.299 314.175 322.044 314.227 320.959 313.734 Z"/>
      <path id="key-p" class="cls-6" d="M 336.019 322.434 L 325.399 316.304 C 324.529 315.804 324.639 314.924 325.639 314.304 L 335.779 308.454 C 336.82 307.873 338.074 307.821 339.159 308.314 L 349.789 314.454 C 350.649 314.954 350.549 315.824 349.539 316.404 L 339.409 322.254 C 338.372 322.848 337.114 322.915 336.019 322.434 Z"/>
      <path id="key-lbracket" class="cls-6" d="M 351.089 331.104 L 340.469 324.974 C 339.599 324.474 339.709 323.594 340.709 322.974 L 350.849 317.124 C 351.89 316.543 353.144 316.491 354.229 316.984 L 364.849 323.114 C 365.719 323.624 365.609 324.494 364.609 325.114 L 354.469 330.964 C 353.429 331.545 352.174 331.597 351.089 331.104 Z"/>
      <path id="key-rbracket" class="cls-6" d="M 366.159 339.834 L 355.529 333.704 C 354.669 333.204 354.769 332.324 355.779 331.704 L 365.919 325.854 C 366.96 325.273 368.214 325.221 369.299 325.714 L 379.919 331.844 C 380.789 332.344 380.679 333.224 379.679 333.844 L 369.529 339.694 C 368.491 340.272 367.241 340.324 366.159 339.834 Z"/>
      <path id="key-backslash" class="cls-6" d="M 382.458 349.256 L 370.593 342.388 C 369.733 341.888 369.833 341.008 370.843 340.388 L 380.983 334.538 C 382.023 333.956 383.278 333.904 384.363 334.398 L 396.218 341.266 C 397.088 341.766 396.978 342.646 395.978 343.266 L 385.828 349.116 C 384.79 349.693 383.54 349.745 382.458 349.256 Z"/>
      <path id="key-capslock" class="cls-6" d="M 176.49 247.21 L 154.49 234.53 C 153.62 234.03 153.73 233.15 154.73 232.53 L 164.87 226.68 C 165.91 226.099 167.165 226.047 168.25 226.54 L 190.25 239.23 C 191.12 239.73 191.01 240.6 190.01 241.18 L 179.87 247.03 C 178.835 247.621 177.582 247.688 176.49 247.21 Z"/>
      <path id="key-a" class="cls-6" d="M 191.52 255.89 L 180.89 249.75 C 180.03 249.25 180.14 248.38 181.14 247.8 L 191.28 242 C 192.32 241.419 193.575 241.367 194.66 241.86 L 205.28 247.99 C 206.15 248.49 206.04 249.37 205.04 249.94 L 194.9 255.8 C 193.852 256.365 192.597 256.398 191.52 255.89 Z"/>
      <path id="key-s" class="cls-6" d="M 206.54 264.56 L 195.92 258.43 C 195.05 257.93 195.16 257.05 196.16 256.48 L 206.3 250.62 C 207.34 250.039 208.595 249.987 209.68 250.48 L 220.31 256.62 C 221.18 257.12 221.07 257.99 220.07 258.57 L 209.93 264.42 C 208.886 265.001 207.628 265.053 206.54 264.56 Z"/>
      <path id="key-d" class="cls-6" d="M 221.57 273.24 L 210.94 267.1 C 210.08 266.6 210.19 265.73 211.19 265.1 L 221.33 259.25 C 222.37 258.669 223.625 258.617 224.71 259.11 L 235.33 265.24 C 236.2 265.74 236.09 266.62 235.09 267.19 L 225 273.1 C 223.946 273.698 222.669 273.75 221.57 273.24 Z"/>
      <path id="key-f" class="cls-6" d="M 236.59 281.91 L 226 275.78 C 225.13 275.28 225.24 274.4 226.24 273.83 L 236.35 268 C 237.39 267.419 238.645 267.367 239.73 267.86 L 250.36 274 C 251.22 274.5 251.12 275.37 250.12 275.95 L 240 281.77 C 238.951 282.358 237.684 282.41 236.59 281.91 Z"/>
      <path id="key-g" class="cls-6" d="M 251.62 290.59 L 241 284.45 C 240.14 283.95 240.25 283.08 241.25 282.5 L 251.39 276.65 C 252.43 276.069 253.685 276.017 254.77 276.51 L 265.39 282.64 C 266.26 283.14 266.15 284.01 265.15 284.59 L 255 290.45 C 253.958 291.026 252.706 291.078 251.62 290.59 Z"/>
      <path id="key-h" class="cls-6" d="M 266.64 299.26 L 256 293.13 C 255.13 292.63 255.24 291.75 256.24 291.13 L 266.38 285.28 C 267.42 284.699 268.675 284.647 269.76 285.14 L 280.39 291.27 C 281.25 291.78 281.15 292.65 280.14 293.27 L 270 299.12 C 268.964 299.691 267.72 299.743 266.64 299.26 Z"/>
      <path id="key-j" class="cls-6" d="M 281.67 307.94 L 271 301.8 C 270.14 301.3 270.24 300.43 271.25 299.85 L 281.43 294 C 282.469 293.416 283.724 293.36 284.81 293.85 L 295.43 300 C 296.3 300.5 296.19 301.37 295.19 301.95 L 285.05 307.81 C 284.007 308.383 282.754 308.431 281.67 307.94 Z"/>
      <path id="key-k" class="cls-6" d="M 296.69 316.61 L 286.07 310.48 C 285.2 309.98 285.31 309.1 286.31 308.48 L 296.45 302.63 C 297.49 302.049 298.745 301.997 299.83 302.49 L 310.46 308.62 C 311.32 309.12 311.22 310 310.21 310.62 L 300.08 316.47 C 299.036 317.051 297.778 317.103 296.69 316.61 Z"/>
      <path id="key-l" class="cls-6" d="M 311.72 325.29 L 301.09 319.15 C 300.23 318.65 300.33 317.78 301.34 317.2 L 311.47 311.34 C 312.515 310.763 313.771 310.712 314.86 311.2 L 325.48 317.34 C 326.35 317.84 326.24 318.71 325.24 319.34 L 315.1 325.19 C 314.053 325.758 312.799 325.795 311.72 325.29 Z"/>
      <path id="key-semicolon" class="cls-6" d="M 326.74 334 L 316.12 327.87 C 315.25 327.36 315.36 326.49 316.36 325.87 L 326.5 320 C 327.54 319.419 328.795 319.367 329.88 319.86 L 340.51 326 C 341.37 326.5 341.26 327.38 340.26 328 L 330.12 333.85 C 329.081 334.434 327.826 334.49 326.74 334 Z"/>
      <path id="key-quote" class="cls-6" d="M 341.77 342.63 L 331.14 336.5 C 330.28 336 330.38 335.13 331.38 334.55 L 341.52 328.69 C 342.565 328.113 343.821 328.062 344.91 328.55 L 355.53 334.69 C 356.4 335.19 356.29 336.06 355.29 336.64 L 345.15 342.49 C 344.11 343.071 342.855 343.123 341.77 342.63 Z"/>
      <path id="key-enter" class="cls-6" d="M 367.928 357.661 L 346.17 345.17 C 345.3 344.67 345.41 343.8 346.41 343.22 L 356.55 337.37 C 357.59 336.789 358.845 336.737 359.93 337.23 L 381.698 349.711 C 382.558 350.211 382.448 351.091 381.448 351.661 L 371.308 357.521 C 370.268 358.102 369.013 358.154 367.928 357.661 Z"/>
      <path id="key-lshift" class="cls-6" d="M 169.487 259.993 L 140 243 C 139.13 242.5 139.24 241.63 140.24 241 L 150.38 235.15 C 151.422 234.566 152.68 234.51 153.77 235 L 183.277 252.033 C 184.147 252.533 184.037 253.403 183.037 254.033 L 172.897 259.893 C 171.841 260.467 170.575 260.504 169.487 259.993 Z"/>
      <path id="key-z" class="cls-6" d="M 184.5 268.67 L 173.88 262.54 C 173.01 262.04 173.12 261.16 174.12 260.54 L 184.26 254.68 C 185.3 254.099 186.555 254.047 187.64 254.54 L 198.27 260.68 C 199.14 261.18 199.03 262.05 198.03 262.63 L 187.89 268.48 C 186.854 269.077 185.596 269.148 184.5 268.67 Z"/>
      <path id="key-x" class="cls-6" d="M 199.53 277.35 L 188.9 271.21 C 188.03 270.71 188.14 269.84 189.14 269.26 L 199.28 263.41 C 200.322 262.826 201.58 262.77 202.67 263.26 L 213.29 269.4 C 214.16 269.9 214.05 270.77 213.05 271.4 L 202.91 277.26 C 201.86 277.82 200.608 277.854 199.53 277.35 Z"/>
      <path id="key-c" class="cls-6" d="M 214.55 286 L 203.92 279.86 C 203.06 279.36 203.17 278.49 204.17 277.91 L 214.31 272.06 C 215.35 271.479 216.605 271.427 217.69 271.92 L 228.31 278.05 C 229.18 278.55 229.07 279.43 228.07 280.05 L 217.93 285.9 C 216.883 286.468 215.629 286.505 214.55 286 Z"/>
      <path id="key-v" class="cls-6" d="M 229.57 294.69 L 219 288.56 C 218.13 288.06 218.24 287.18 219.24 286.61 L 229.38 280.75 C 230.42 280.169 231.675 280.117 232.76 280.61 L 243.39 286.75 C 244.25 287.25 244.14 288.12 243.14 288.7 L 233 294.55 C 231.946 295.148 230.669 295.2 229.57 294.69 Z"/>
      <path id="key-b" class="cls-6" d="M 244.59 303.37 L 234 297.23 C 233.13 296.73 233.24 295.86 234.24 295.23 L 244.38 289.37 C 245.422 288.794 246.674 288.742 247.76 289.23 L 258.39 295.37 C 259.25 295.87 259.15 296.74 258.14 297.32 L 248 303.23 C 246.949 303.813 245.685 303.865 244.59 303.37 Z"/>
      <path id="key-n" class="cls-6" d="M 259.62 312 L 249 305.9 C 248.13 305.4 248.24 304.53 249.24 303.95 L 259.38 298.1 C 260.42 297.519 261.675 297.467 262.76 297.96 L 273.39 304.09 C 274.26 304.59 274.15 305.47 273.15 306.09 L 263 311.9 C 261.953 312.468 260.699 312.505 259.62 312 Z"/>
      <path id="key-m" class="cls-6" d="M 274.64 320.71 L 264 314.58 C 263.14 314.08 263.24 313.2 264.25 312.58 L 274.38 306.73 C 275.424 306.149 276.682 306.097 277.77 306.59 L 288.39 312.72 C 289.26 313.23 289.15 314.1 288.15 314.72 L 278 320.57 C 276.965 321.144 275.719 321.196 274.64 320.71 Z"/>
      <path id="key-comma" class="cls-6" d="M 289.66 329.38 L 279 323.25 C 278.13 322.75 278.24 321.88 279.24 321.3 L 289.38 315.44 C 290.422 314.864 291.674 314.812 292.76 315.3 L 303.38 321.44 C 304.25 321.94 304.14 322.81 303.14 323.39 L 293 329.24 C 291.972 329.812 290.733 329.864 289.66 329.38 Z"/>
      <path id="key-dot" class="cls-6" d="M 304.68 338.06 L 294.06 331.92 C 293.19 331.42 293.3 330.55 294.3 329.97 L 304.44 324.12 C 305.48 323.539 306.735 323.487 307.82 323.98 L 318.45 330.11 C 319.31 330.61 319.2 331.49 318.2 332.06 L 308.06 337.92 C 307.02 338.501 305.765 338.553 304.68 338.06 Z"/>
      <path id="key-slash" class="cls-6" d="M 319.7 346.73 L 309.08 340.6 C 308.21 340.1 308.32 339.22 309.32 338.6 L 319.46 332.75 C 320.5 332.169 321.755 332.117 322.84 332.61 L 333.47 338.74 C 334.34 339.24 334.23 340.12 333.23 340.74 L 323.09 346.59 C 322.046 347.171 320.788 347.223 319.7 346.73 Z"/>
      <path id="key-rshift" class="cls-6" d="M 353.32 366.14 L 324.1 349.27 C 323.23 348.77 323.34 347.89 324.34 347.32 L 334.48 341.46 C 335.525 340.883 336.781 340.832 337.87 341.32 L 367.09 358.19 C 367.95 358.69 367.84 359.57 366.84 360.19 L 356.7 366 C 355.66 366.581 354.405 366.633 353.32 366.14 Z"/>
      <path id="key-lcontrol" class="cls-6" d="M 136 257.51 L 125.37 251.38 C 124.51 250.88 124.61 250 125.61 249.43 L 135.75 243.57 C 136.794 242.989 138.052 242.937 139.14 243.43 L 149.76 249.57 C 150.63 250.07 150.52 250.94 149.52 251.57 L 139.38 257.42 C 138.332 257.985 137.077 258.018 136 257.51 Z"/>
      <path id="key-fn" class="cls-6" d="M 151 266.17 L 140.39 260 C 139.52 259.5 139.63 258.62 140.63 258 L 150.77 252.14 C 151.81 251.559 153.065 251.507 154.15 252 L 164.78 258.14 C 165.65 258.64 165.54 259.51 164.54 260.09 L 154.4 266 C 153.359 266.597 152.095 266.661 151 266.17 Z"/>
      <path id="key-lcommand" class="cls-6" d="M 166 274.83 L 155.38 268.7 C 154.51 268.2 154.62 267.32 155.62 266.75 L 165.76 260.89 C 166.8 260.309 168.055 260.257 169.14 260.75 L 179.77 266.89 C 180.64 267.39 180.53 268.26 179.53 268.84 L 169.39 274.69 C 168.346 275.271 167.088 275.323 166 274.83 Z"/>
      <path id="key-lalt" class="cls-6" d="M 181.148 283.456 L 170.528 277.326 C 169.658 276.826 169.768 275.946 170.768 275.376 L 180.908 269.516 C 181.948 268.935 183.203 268.883 184.288 269.376 L 194.918 275.516 C 195.788 276.016 195.678 276.886 194.678 277.466 L 184.538 283.316 C 183.494 283.898 182.236 283.95 181.148 283.456 Z"/>
      <path id="key-space" class="cls-6" d="M 263.631 331.272 L 185.617 286.022 C 184.747 285.522 184.857 284.642 185.857 284.072 L 195.997 278.212 C 197.037 277.631 198.292 277.579 199.377 278.072 L 277.401 323.322 C 278.271 323.822 278.161 324.702 277.161 325.272 L 267.021 331.132 C 265.978 331.713 264.72 331.765 263.631 331.272 Z"/>
      <path id="key-ralt" class="cls-6" d="M 278.719 339.932 L 268.089 333.792 C 267.219 333.292 267.329 332.422 268.329 331.842 L 278.469 325.992 C 279.51 325.411 280.764 325.359 281.849 325.852 L 292.479 331.982 C 293.349 332.482 293.239 333.362 292.239 333.932 L 282.099 339.792 C 281.059 340.373 279.804 340.425 278.719 339.932 Z"/>
      <path id="key-rcontrol" class="cls-6" d="M 293.75 348.58 L 283.12 342.44 C 282.25 341.94 282.36 341.07 283.36 340.49 L 293.5 334.64 C 294.54 334.059 295.795 334.007 296.88 334.5 L 307.51 340.63 C 308.38 341.13 308.27 342.01 307.27 342.58 L 297.13 348.44 C 296.09 349.021 294.835 349.073 293.75 348.58 Z"/>
      <path id="key-left" class="cls-6" d="M 308.995 357.207 L 298.375 351.067 C 297.505 350.567 297.615 349.697 298.615 349.117 L 301.912 347.304 C 302.952 346.723 304.207 346.671 305.292 347.164 L 315.922 353.304 C 316.782 353.804 316.682 354.684 315.672 355.254 L 312.385 357.117 C 311.332 357.678 310.076 357.711 308.995 357.207 Z"/>
      <path id="key-up" class="cls-6" d="M 330.753 362.012 L 320.133 355.872 C 319.263 355.372 319.373 354.502 320.373 353.922 L 323.67 352.109 C 324.71 351.528 325.965 351.476 327.05 351.969 L 337.68 358.109 C 338.54 358.609 338.44 359.489 337.43 360.059 L 334.143 361.922 C 333.09 362.483 331.834 362.516 330.753 362.012 Z"/>
      <path id="key-down" class="cls-6" d="M 323.74 365.9 L 313.12 359.76 C 312.25 359.26 312.36 358.39 313.36 357.81 L 316.657 355.997 C 317.697 355.416 318.952 355.364 320.037 355.857 L 330.667 361.997 C 331.527 362.497 331.427 363.377 330.417 363.947 L 327.13 365.81 C 326.077 366.371 324.821 366.404 323.74 365.9 Z"/>
      <path id="key-right" class="cls-6" d="M 338.65 374.282 L 328.03 368.142 C 327.16 367.642 327.27 366.772 328.27 366.192 L 331.567 364.379 C 332.607 363.798 333.862 363.746 334.947 364.239 L 345.577 370.379 C 346.437 370.879 346.337 371.759 345.327 372.329 L 342.04 374.192 C 340.987 374.753 339.731 374.786 338.65 374.282 Z"/>
    </g>
    <path id="laptop-touchpad-indent" class="cls-1" d="M280,346.18a3.18,3.18,0,0,1-1.47,1.53l-58.71,33.9a7.22,7.22,0,0,1-6.51.26L113,324a2.21,2.21,0,0,1-1-1.06c-.37-.89.14-1.93,1.47-2.7l58.71-33.9a7.25,7.25,0,0,1,6.51-.27L279,344A1.77,1.77,0,0,1,280,346.18Z"/>
    <path id="laptop-touchpad" d="M280,346.18a3.18,3.18,0,0,1-1.47,1.53l-58.71,33.9a7.22,7.22,0,0,1-6.51.26L113,324a2.21,2.21,0,0,1-1-1.06,3.27,3.27,0,0,1,1.47-1.53l58.71-33.89a7.25,7.25,0,0,1,6.51-.27L279,345.13A2.22,2.22,0,0,1,280,346.18Z"/>
  </g>
  <g id="phone" transform="matrix(1.07969, 0, 0, 1.056165, -40.352056, 0.123699)">
    <path id="phone-shadow" class="cls-5" d="M383.74,471.47l-39.37-22.73c-3.33-1.93-2.91-5.29.94-7.51l95.08-54.9c3.85-2.22,9.68-2.46,13-.54l39.36,22.73c3.34,1.92,2.92,5.29-.93,7.51l-95.09,54.9C392.89,473.15,387.07,473.39,383.74,471.47Z"/>
    <path id="phone-edge" class="cls-1" d="M 388.72 468.47 L 349.36 445.75 C 347.819 444.857 347.079 443.658 347.11 442.408 L 347.11 438.81 L 348.682 439.406 C 349.126 438.994 349.662 438.602 350.29 438.24 L 445.38 383.34 C 449.23 381.12 455.05 380.88 458.38 382.8 L 497.74 405.53 C 498.05 405.709 498.327 405.9 498.572 406.101 L 500 405.18 L 500 408.67 L 499.988 408.665 C 500.051 410.176 498.974 411.787 496.81 413.04 L 401.72 467.93 C 397.88 470.16 392.06 470.4 388.72 468.47 Z"/>
    <path id="phone-edge-strip" d="M388.72,465.41l-39.36-22.73c-3.33-1.92-2.92-5.29.93-7.51l95.09-54.9c3.85-2.22,9.67-2.46,13-.54l39.36,22.73c3.33,1.92,2.92,5.29-.93,7.51l-95.09,54.9C397.88,467.09,392.06,467.33,388.72,465.41Z" style="fill: #616e84;"/>
    <ellipse id="phone-loudpseaker-l1" class="cls-7" cx="353.75" cy="446.7" rx="0.42" ry="0.73" transform="translate(-175.96 236.73) rotate(-30)"/>
    <ellipse id="phone-loudpseaker-l2" class="cls-7" cx="355.64" cy="447.8" rx="0.42" ry="0.73" transform="translate(-176.26 237.83) rotate(-30)"/>
    <ellipse id="phone-loudpseaker-l3" class="cls-7" cx="357.54" cy="448.89" rx="0.42" ry="0.73" transform="translate(-176.55 238.92) rotate(-30)"/>
    <ellipse id="phone-loudpseaker-l4" class="cls-7" cx="359.43" cy="449.98" rx="0.42" ry="0.73" transform="translate(-176.84 240.02) rotate(-30)"/>
    <ellipse id="phone-loudspeaker-r1" class="cls-7" cx="375.3" cy="457.04" rx="0.42" ry="0.73" transform="matrix(0.87, -0.5, 0.5, 0.87, -179.36, 249.41)"/>
    <ellipse id="phone-loudspeaker-r2" class="cls-7" cx="377.6" cy="460.47" rx="0.42" ry="0.73" transform="translate(-179.65 250.5) rotate(-30)"/>
    <ellipse id="phone-loudspeaker-r3" class="cls-7" cx="379.49" cy="461.56" rx="0.42" ry="0.73" transform="translate(-179.95 251.6) rotate(-30)"/>
    <ellipse id="phone-loudspeaker-r4" class="cls-7" cx="381.38" cy="462.66" rx="0.42" ry="0.73" transform="translate(-180.24 252.69) rotate(-30)"/>
    <path id="phone-charge-port" class="cls-7" d="M370.17,457,365,454a1.45,1.45,0,0,1-.59-1.14h0c0-.44.27-.64.59-.45l5.21,3a1.43,1.43,0,0,1,.6,1.14h0C370.77,457,370.5,457.17,370.17,457Z"/>
    <path id="phone-volume-up" class="cls-7" d="M488.09,417.29l-4.84,2.8c-.31.18-.56,0-.56-.42h0a1.33,1.33,0,0,1,.56-1.06l4.84-2.8c.3-.17.55,0,.55.42h0A1.33,1.33,0,0,1,488.09,417.29Z"/>
    <path id="phone-volume-down" class="cls-7" d="M480.67,421.57l-4.84,2.8c-.31.18-.55,0-.55-.42h0a1.32,1.32,0,0,1,.55-1.06l4.84-2.8c.31-.17.56,0,.56.42h0A1.31,1.31,0,0,1,480.67,421.57Z"/>
    <path id="phone-screen-border" d="M388.72,464.85l-39.36-22.73c-3.33-1.92-2.92-5.28.93-7.51l95.09-54.89c3.85-2.23,9.67-2.47,13-.54l39.36,22.72c3.33,1.93,2.92,5.29-.93,7.51l-95.09,54.9C397.88,466.53,392.06,466.77,388.72,464.85Z" style="fill: #20232d;"/>
    <path id="phone-screen" class="cls-6" d="M493.52,402.81l-15.36-8.87,0,0a7.27,7.27,0,0,1-6.58,0c-1.81-1-1.81-2.75,0-3.8l0,0-15.37-8.87a9.32,9.32,0,0,0-8.45,0l-92.6,53.46c-2.34,1.35-2.34,3.54,0,4.88l37.31,21.54a9.32,9.32,0,0,0,8.45,0l92.6-53.46C495.86,406.34,495.86,404.16,493.52,402.81Z"/>
    <path id="phone-screen-gradient" d="M 493.52 402.81 L 478.16 393.94 C 476.092 394.989 473.648 394.989 471.58 393.94 C 469.77 392.94 469.77 391.19 471.58 390.14 L 456.21 381.27 C 453.555 379.92 450.415 379.92 447.76 381.27 L 355.16 434.73 C 352.82 436.08 352.82 438.27 355.16 439.61 L 392.47 461.15 C 395.125 462.5 398.265 462.5 400.92 461.15 L 493.52 407.69 C 495.86 406.34 495.86 404.16 493.52 402.81 Z" style="fill: url(#phone-screen-gradient); opacity: 0.5;"/>
    <g id="message-1">
      <rect class="cls-3" x="402.426" y="267.14" width="42.25" height="17.763" style="fill-opacity: 0.23;" transform="matrix(0.868666, 0.495398, -1.002227, 0.579623, 365.371246, 32.444321)" rx="3.302" ry="3.302"/>
      <path d="M 440.694 278.335 Q 441.763 276.733 442.831 278.335 L 447.17 284.84 Q 448.238 286.442 446.101 286.442 L 437.424 286.442 Q 435.287 286.442 436.355 284.84 Z" style="fill: #d8d8d8; fill-opacity: 0.5;" transform="matrix(0.865517, 0.50088, -0.736863, 0.728952, 271.416626, -30.771587)"/>
      <text style="white-space: pre; fill: #333; font-family: Arial, sans-serif; font-size: 4.9px;" x="592.709" y="380.816" transform="matrix(1.764913, 1.036567, -1.184541, 0.911761, -153.074829, -564.389038)">!</text>
    </g>
    <g id="message-2">
      <rect class="cls-3" x="402.426" y="267.14" width="42.25" height="17.763" style="fill-opacity: 0.23;" transform="matrix(0.868666, 0.495398, -1.002227, 0.579623, 345.109375, 44.008442)" rx="3.302" ry="3.302"/>
      <ellipse style="fill: #d8d8d8; fill-opacity: 0.5;" cx="425.775" cy="407.81" rx="5.865" ry="4.115" transform="matrix(0.868985, 0.494838, -1.006738, 0.577487, 466.974838, -38.383209)"/>
      <text style="white-space: pre; fill: #333; font-family: Arial, sans-serif; font-size: 28px;" transform="matrix(0.309297, 0.171951, -0.19067, 0.110165, 423.564362, 408.162109)">i</text>
    </g>
    <ellipse id="phone-camera" class="cls-6" cx="473.82" cy="392.64" rx="1.76" ry="1.02"/>
    <path id="phone-camera-lens" d="M473.3,392.94c-.29-.16-.29-.43,0-.6a1.14,1.14,0,0,1,1.05,0,.32.32,0,0,1,0,.6A1.14,1.14,0,0,1,473.3,392.94Z" style="fill: #fff; opacity: 0.1;"/>
  </g>
  <path id="background" d="M 0 0 L 500 0 L 500 500 L 0 500 L 0 0 Z M 186.902 0.611 L 184.423 2.004 C 184.423 2.004 184.424 2.004 184.426 2.005 C 183.045 2.724 182.167 4.482 182.167 7 L 182.167 193.444 C 182.167 197.455 184.397 202.053 187.327 204.388 C 183.85 202.525 177.931 202.793 174.004 205.02 L 8.952 298.28 C 6.739 299.527 5.618 301.131 5.648 302.645 L 5.648 303.12 C 5.647 303.158 5.647 303.197 5.648 303.235 L 5.648 304.676 L 3.564 305.853 C -0.431 308.113 -0.862 311.524 2.593 313.468 L 249.032 452.628 C 252.432 454.572 258.479 454.328 262.463 452.079 L 427.515 358.862 C 427.96 358.61 428.36 358.343 428.716 358.068 L 432.902 355.704 C 435.045 354.492 436.163 352.948 436.206 351.478 L 436.207 351.478 L 436.207 351.443 C 436.208 351.408 436.208 351.373 436.207 351.337 L 436.207 347.623 C 436.208 347.584 436.208 347.545 436.207 347.505 L 436.207 347.043 C 436.231 346.033 435.745 345.055 434.735 344.242 L 434.813 344.286 C 436.318 345.136 437.699 345.225 438.777 344.681 L 438.776 344.687 L 441.508 343.156 L 441.505 343.137 C 442.885 342.415 443.764 340.646 443.764 338.097 L 443.764 151.706 C 443.764 147.195 440.957 141.968 437.502 140.014 L 191.117 0.864 C 189.492 -0.055 188.013 -0.085 186.902 0.611 Z M 388.02 497.505 L 490.688 439.52 C 491.145 439.263 491.557 438.99 491.924 438.706 L 496.075 436.364 C 498.412 435.04 499.575 433.338 499.507 431.742 L 499.52 431.747 L 499.52 428.061 L 499.51 428.068 C 499.517 426.768 498.718 425.526 497.08 424.598 L 454.583 400.601 C 450.987 398.562 444.704 398.817 440.547 401.171 L 337.879 459.144 C 335.569 460.454 334.406 462.132 334.446 463.711 L 334.446 464.142 C 334.445 464.194 334.445 464.247 334.446 464.3 L 334.446 465.039 L 332.502 466.136 C 328.345 468.481 327.892 472.03 331.487 474.069 L 373.995 498.075 C 377.59 500.103 383.874 499.849 388.02 497.505 Z"/>
</svg>